<?xml version="1.0" encoding="UTF-8"?><svg id="a" xmlns="http://www.w3.org/2000/svg" xmlns:xlink="http://www.w3.org/1999/xlink" viewBox="0 0 1024 691.54"><defs><style>.d,.e{fill:none;}.f{opacity:.47;}.g{opacity:.42;}.e{stroke:#c6c6c6;stroke-linecap:round;stroke-linejoin:round;stroke-width:.5px;}.h{clip-path:url(#c);}.i{clip-path:url(#b);}</style><clipPath id="b"><rect class="d" x="-4.66" y="3.12" width="1035.73" height="689.12"/></clipPath><clipPath id="c"><rect class="d" x="10.6" y="-855.6" width="1035.73" height="689.12"/></clipPath></defs><g class="g"><g class="i"><g class="f"><path class="e" d="M941.41,47.79c9.34,27.99,18.66,58.33,26.83,89.83,3.51,14,5.84,29.16,8.17,44.33,14.46,5.56,56.49,17.15,100.8,2.1-11.78-42.22-28.06-82.56-48.53-120.32-33.92-3.36-69.15-11.16-87.27-15.93Z"/><path class="e" d="M978.74,197.12c8.18,65.32,5.84,134.16-1.16,197.15,67.66-32.66,107.32-57.15,120.15-65.32v16.33c-18.67,11.66-59.5,35-122.49,65.32-10.49,79.33-26.82,148.15-38.5,183.15l131.14-66.08c19.9-58.68,30.85-121.5,30.85-186.91,0-49.61-6.24-97.75-17.93-143.73-17.41,6.16-33.86,8.26-48.39,8.26-22.17,0-41.99-4.67-53.67-8.17Z"/><path class="e" d="M928.56,751.99c57.49-57.58,102.89-127.18,132.31-204.66-49.06,24.66-131.13,66.28-131.13,66.28-5.81,18.63-4.66,74.41-1.18,138.37Z"/><path class="e" d="M916.92,27.98c-10.5-29.17-22.16-54.83-33.83-76.99-22.16-2.34-44.33-5.84-66.49-9.34-29.17-4.67-64.17-7-100.32-9.33,7,18.67,15.17,39.66,22.16,60.66l178.48,35Z"/><path class="e" d="M761.77,346.44c-4.66,41.99-9.34,86.32-12.83,130.66,24.5-1.17,46.67-5.83,67.66-14,58.32-22.16,106.15-43.16,145.82-61.83h0c7-66.49,10.49-139.99,2.33-208.82-21-3.5-138.82-23.33-187.81-46.66,1.17,36.16-5.83,109.66-15.17,200.65Z"/><path class="e" d="M495.8,93.3c85.16-19.83,201.81-7,262.47,25.66-7-35-17.5-75.82-30.33-113.15L493.47-7.02c-2.34,26.83-5.84,60.66-12.84,103.82,4.67-1.17,10.5-2.33,15.17-3.5Z"/><path class="e" d="M736.1,666.08c-1.16,39.65,1.17,76.99,3.51,109.65,60.66,0,118.99-8.16,174.98-20.99h0c-2.33-57.16-3.5-110.83,0-136.49l-178.48,47.83Z"/><path class="e" d="M374.48,712.72c-51.33-19.82-99.15-36.16-143.48-50.16l50.16,138.83c9.34,1.17,19.83,3.5,30.33,5.83,19.84,4.67,44.33,9.34,70,15.17h0c12.83,2.34,26.84,5.84,39.67,10.49l-44.33-114.32s-1.17-2.34-2.33-5.84Z"/><path class="e" d="M179.67,109.64l94.48,4.66c7-40.83,17.5-78.17,29.17-111.99l-104.99,9.34-18.67,98Z"/><path class="e" d="M151.68,447.93c-43.17-14-85.16-24.5-124.83-28l38.5,171.49h0c1.17,1.17,2.33,4.66,4.67,10.49,40.82,10.5,87.49,23.33,137.65,38.5l-54.82-178.48-1.17-13.99Z"/><path class="e" d="M314.99,517.91c26.83,88.65,57.15,157.48,70,181.98,15.17,5.82,29.16,11.66,44.33,17.49,44.33,17.49,87.5,30.33,130.66,39.66l-70-134.15c-9.34-5.83-80.5-56-174.98-104.99Z"/><path class="e" d="M218.17-70.01c-35,2.32-72.33,4.66-109.65,7L84.01-.02l103.83-1.17,30.33-68.82Z"/><path class="e" d="M163.33,122.46l-108.48,2.33-26.84,108.49c44.33,5.84,80.49,16.33,106.15,29.17l29.16-139.99Z"/><path class="e" d="M60.67,612.41c-23.68-5.51-45.42-10.17-65.83-14.12,23.74,48.03,53.87,92.34,89.36,131.75,.28-7.46,.91-15.35,2.14-23.13,2.33-18.67-14-65.32-25.67-94.49Z"/><path class="e" d="M264.83,351.1c-38.5-19.84-78.16-40.83-117.82-64.16l17.49,149.31c44.33,15.17,87.5,35,128.32,54.83-11.67-43.16-22.16-90.99-27.99-139.99h0Z"/><path class="e" d="M53.67,596.08v-1.16L14.01,418.77c-26.05-1.04-50.92-2.09-74.28-3.12,7.6,59.14,24.05,115.48,48.03,167.69,20.5,3.95,42.46,8.63,65.91,13.91v-1.17Z"/><path class="e" d="M40.84,124.81l-63.98-1.35c-13.35,33.14-23.81,67.75-30.9,103.58,24.1,1.02,47.07,2.23,68.05,5.09l26.84-107.33Z"/><path class="e" d="M65.34,13.98l-31.32,1.62C14.22,44.93-2.89,76.22-17.14,109.02l60.31,.62L65.34,13.98Z"/><path class="e" d="M11.67,246.13c-20.68-2.95-43.92-4.23-68.19-5.27-5.62,32.48-8.72,65.82-8.72,99.9,0,20.54,1.09,40.83,3.17,60.82,23.64,1.07,48.14,2.13,73.73,3.2V246.13Z"/><path class="e" d="M479.47,443.26c8.16,83.99,18.66,150.47,21,169.15l222.8,39.65h0c1.16-51.32,5.83-104.98,10.5-159.81h-15.17c-66.5,0-146.99-16.33-239.14-48.99Z"/><path class="e" d="M463.15,114.31c-73.49,12.83-155.15,14-178.48,14-5.83,32.66-9.33,66.48-11.67,101.48-1.17,37.34,0,74.66,4.66,111.99,56,27.99,120.15,57.15,185.48,81.66h0c-8.17-100.32-14-218.14-2.32-298.64,1.17-3.5,1.17-7,2.33-10.49Z"/></g></g></g><g class="g"><g class="h"><g class="f"><path class="e" d="M595.05-81.83l20.99,92.15h0c38.46,7.33,76.86,13.89,113.62,19.21,8.9-3.21,17.69-6.64,26.38-10.26-4.24-19.58-9.23-50.13-12.83-87.1-47.83,0-96.82-4.66-148.16-13.99Z"/><path class="e" d="M160.4-70.11C205.87-32.33,257.24-1.44,312.85,21.19c-13.82-34.17-22.52-56.88-26.94-66.84-44.52-9.41-86.48-17.55-125.51-24.46Z"/><path class="e" d="M629.92,55.66c24.64-4.17,48.78-9.81,72.27-16.99-26.64-4.29-54.02-9.09-81.48-14.32l9.21,31.31Z"/><path class="e" d="M459.72-8.31l29.61,70.6c14.11,1.03,28.3,1.73,42.67,1.73,28.32,0,56.13-2.13,83.36-6.04l-10.99-35.96c-50.17-10.5-99.16-19.83-144.66-30.33Z"/><path class="e" d="M442.22-11.81c-16.33-3.5-33.83-7-49-10.49-25.66-5.84-49-10.51-70-15.17-7-1.16-13.99-3.5-20.99-4.66,4.66,12.83,13.99,33.82,25.66,62.98,1.16,2.5,2.08,4.99,3.05,7.48,45.19,16.64,93.02,27.83,142.69,32.77L444.56-7.14l-2.33-4.66Z"/></g></g></g></svg>