<svg width="508" height="447" viewBox="0 0 508 447" fill="none" xmlns="http://www.w3.org/2000/svg">
<g clip-path="url(#clip0_871_19)">
<path d="M384.58 136.59C375.3 131.29 363.36 131.29 352.75 136.59L278.49 180.36L228.1 208.2L155.16 252C145.88 257.3 133.94 257.3 123.33 252L66.33 217.52C61.4826 214.664 57.4642 210.593 54.6722 205.709C51.8801 200.824 50.411 195.296 50.41 189.67V123.33C50.41 112.72 55.72 102.11 66.33 95.48L123.33 62.33C132.61 57.02 144.55 57.02 155.16 62.33L212.16 96.81C217.009 99.6641 221.028 103.735 223.82 108.62C226.613 113.504 228.081 119.034 228.08 124.66V168.42L278.47 139.24V94.16C278.47 83.55 273.17 72.94 262.56 66.31L156.48 3.99996C147.2 -1.31004 135.27 -1.31004 124.66 3.99996L15.91 67.63C5.3 72.94 0 83.55 0 94.16V218.81C0 229.42 5.3 240 15.91 246.66L123.33 309C132.61 314.31 144.55 314.31 155.16 309L228.1 266.56L278.49 237.39L351.43 194.95C360.71 189.65 372.65 189.65 383.26 194.95L440.26 228.11C445.116 230.967 449.14 235.044 451.935 239.936C454.729 244.828 456.196 250.366 456.19 256V322.3C456.19 332.91 450.89 343.52 440.28 350.15L384.58 383.31C375.3 388.61 363.36 388.61 352.75 383.31L295.75 350.15C290.904 347.294 286.887 343.222 284.097 338.338C281.306 333.453 279.839 327.925 279.84 322.3V279.82L229.42 309V352.76C229.42 363.37 234.73 373.98 245.34 380.61L352.75 442.94C362.04 448.25 373.97 448.25 384.58 442.94L492 380.6C496.846 377.744 500.863 373.672 503.653 368.788C506.444 363.903 507.911 358.375 507.91 352.75V226.75C507.91 216.14 502.61 205.53 492 198.9L384.58 136.59Z" fill="#D4D4D4"/>
</g>
<defs>
<clipPath id="clip0_871_19">
<rect width="507.91" height="446.91" fill="white"/>
</clipPath>
</defs>
</svg>
